<?xml version="1.0" standalone="no"?>
<!-- Generator: Gravit.io -->
<svg xmlns="http://www.w3.org/2000/svg" xmlns:xlink="http://www.w3.org/1999/xlink" style="isolation:isolate" viewBox="0 0 425 125" width="425" height="125">
  <defs>
    <clipPath id="_clipPath_KFGRwocpakjyf0m2zNrq9MLMQSIZBRiT">
      <rect width="425" height="125"/>
    </clipPath>
        <linearGradient id="gradient" x1="0%" x2="100%" y1="0%" y2="0%" spreadMethod="pad">
            <stop offset="0%" style="stop-color:rgb(255, 36, 0);stop-opacity:1">
                <animate attributeName="stop-color" dur="10s" repeatCount="indefinite" values="rgb(255, 36, 0);rgb(232, 29, 29);rgb(232, 183, 29);rgb(227, 232, 29);rgb(29, 232, 64);rgb(29, 221, 232);rgb(43, 29, 232);rgb(221, 0, 243);rgb(221, 0, 243)"/>
            </stop>
        </linearGradient>
  </defs>
  <g clip-path="url(#_clipPath_KFGRwocpakjyf0m2zNrq9MLMQSIZBRiT)">
    <g id="bg">
      <rect x="0" y="0" width="425" height="125" transform="matrix(1,0,0,1,0,0)" fill="none"/>
    </g>
    <g style="isolation:isolate" id="Joppa-Outreach-Logo">
      <g id="logo">
        <g id="joppa-outreach">
          <path d=" M 147.98 122.863 L 147.98 122.863 L 147.98 122.863 Q 146.066 122.863 144.777 122.375 L 144.777 122.375 L 144.777 117.449 L 144.777 117.449 Q 146.77 117.336 147.98 117.336 L 147.98 117.336 L 147.98 117.336 Q 150.621 116.708 150.457 113.016 L 150.457 113.016 L 150.457 94.191 L 156.145 94.191 L 156.145 113.859 L 156.145 113.859 Q 156.145 118.234 154.064 120.549 L 154.064 120.549 L 154.064 120.549 Q 151.984 122.863 147.98 122.863 Z  M 190.535 108.215 Q 190.535 115.187 187.049 119.055 Q 183.562 122.922 177.176 122.922 Q 170.711 122.922 167.244 119.084 Q 163.777 115.246 163.777 108.176 Q 163.777 101.105 167.264 97.316 Q 170.75 93.527 177.215 93.527 Q 183.582 93.527 187.059 97.375 Q 190.535 101.223 190.535 108.215 Z  M 168.74 108.216 Q 168.74 113.49 170.869 116.214 Q 172.997 118.939 177.177 118.939 Q 181.337 118.939 183.456 116.243 Q 185.576 113.548 185.576 108.216 Q 185.576 102.962 183.476 100.247 Q 181.376 97.533 177.216 97.533 Q 173.017 97.533 170.878 100.247 Q 168.74 102.962 168.74 108.216 Z  M 218.684 103.078 Q 218.684 107.551 215.754 109.934 Q 212.824 112.316 207.414 112.316 L 202.445 112.316 L 202.445 123 L 197.777 123 L 197.777 94.445 L 208 94.445 Q 213.352 94.445 216.018 96.633 Q 218.684 98.82 218.684 103.078 Z  M 202.447 98.353 L 202.447 108.392 L 206.927 108.392 Q 210.521 108.392 212.201 107.142 Q 213.88 105.892 213.88 103.236 Q 213.88 100.775 212.376 99.564 Q 210.872 98.353 207.689 98.353 L 202.447 98.353 Z  M 247.684 103.078 Q 247.684 107.551 244.754 109.934 Q 241.824 112.316 236.414 112.316 L 231.445 112.316 L 231.445 123 L 226.777 123 L 226.777 94.445 L 237 94.445 Q 242.352 94.445 245.018 96.633 Q 247.684 98.82 247.684 103.078 Z  M 231.447 98.353 L 231.447 108.392 L 235.927 108.392 Q 239.521 108.392 241.201 107.142 Q 242.88 105.892 242.88 103.236 Q 242.88 100.775 241.376 99.564 Q 239.872 98.353 236.689 98.353 L 231.447 98.353 Z  M 280.223 123 L 275.262 123 L 272.41 115.07 L 261.492 115.07 L 258.699 123 L 253.777 123 L 264.461 94.328 L 269.539 94.328 L 280.223 123 Z  M 262.861 111.048 L 271.181 111.048 L 268.505 103.275 Q 268.212 102.493 267.695 100.814 Q 267.177 99.134 266.982 98.353 Q 266.454 100.755 265.439 103.607 L 262.861 111.048 Z " fill-rule="evenodd" fill="rgb(0,0,0)"/>
        </g>
        <g id="house-right">
          <path d=" M 65.86 12.925 L 18.689 50.951 L 12.5 42.772 L 58.273 5.873 Q 63.069 1.784 66.351 2.012 Q 69.189 2.21 73.166 5.873 L 88.952 18.599 L 88.952 2.012 L 104.351 2.012 L 104.351 31.012 L 118.641 42.532 L 112.733 50.711 L 65.86 12.925 Z  M 104.34 60.148 L 104.351 60.148 L 104.351 79.303 L 104.324 79.303 C 104.324 79.305 104.324 79.306 104.324 79.308 L 104.324 81.415 C 104.324 83.945 101.054 86 98.523 86 L 98.131 86 L 98.131 86.012 L 73.986 86.012 L 73.986 79.303 L 73.972 79.303 L 73.972 61.012 L 58.517 61.012 L 58.517 79.303 L 58.503 79.303 L 58.503 86.012 L 34.358 86.012 L 34.358 86 L 33.965 86 C 31.435 86 27.378 83.95 27.378 81.42 L 27.378 79.313 C 27.378 79.311 27.378 79.31 27.378 79.308 L 27.351 79.308 L 27.351 60.153 L 27.355 60.153 L 27.351 49.012 L 46.599 33.563 L 65.849 18.012 L 85.1 33.563 L 104.352 49.012 L 104.351 49.012 L 104.34 60.148 Z " fill="rgb(0,0,0)"/>
        </g>
        <g id="house-middle">
          <path d=" M 212.789 12.925 L 165.618 50.951 L 159.429 42.772 L 205.203 5.873 Q 209.999 1.784 213.28 2.012 Q 216.119 2.21 220.096 5.873 L 235.882 18.599 L 235.882 2.012 L 251.28 2.012 L 251.28 31.012 L 265.571 42.532 L 259.662 50.711 L 212.789 12.925 Z  M 251.27 60.148 L 251.28 60.148 L 251.28 79.303 L 251.253 79.303 C 251.253 79.305 251.253 79.306 251.253 79.308 L 251.253 81.415 C 251.253 83.945 247.983 86 245.453 86 L 245.06 86 L 245.06 86.012 L 220.915 86.012 L 220.915 79.303 L 220.901 79.303 L 220.901 61.012 L 205.446 61.012 L 205.446 79.303 L 205.432 79.303 L 205.432 86.012 L 181.287 86.012 L 181.287 86 L 180.895 86 C 178.364 86 174.307 83.95 174.307 81.42 L 174.307 79.313 C 174.307 79.311 174.307 79.31 174.307 79.308 L 174.28 79.308 L 174.28 60.153 L 174.285 60.153 L 174.28 49.012 L 193.528 33.563 L 212.779 18.012 L 232.029 33.563 L 251.282 49.012 L 251.28 49.012 L 251.27 60.148 Z " fill="rgb(0,0,0)"/>
        </g>
        <g id="house-left">
          <path d=" M 359.719 12.925 L 312.548 50.951 L 306.359 42.772 L 352.132 5.873 Q 356.928 1.784 360.21 2.012 Q 363.048 2.21 367.025 5.873 L 382.811 18.599 L 382.811 2.012 L 398.21 2.012 L 398.21 31.012 L 412.5 42.532 L 406.592 50.711 L 359.719 12.925 Z  M 398.199 60.148 L 398.21 60.148 L 398.21 79.303 L 398.183 79.303 C 398.183 79.305 398.183 79.306 398.183 79.308 L 398.183 81.415 C 398.183 83.945 394.913 86 392.382 86 L 391.99 86 L 391.99 86.012 L 367.845 86.012 L 367.845 79.303 L 367.831 79.303 L 367.831 61.012 L 352.376 61.012 L 352.376 79.303 L 352.361 79.303 L 352.361 86.012 L 328.217 86.012 L 328.217 86 L 327.824 86 C 325.294 86 321.237 83.95 321.237 81.42 L 321.237 79.313 C 321.237 79.311 321.237 79.31 321.237 79.308 L 321.21 79.308 L 321.21 60.153 L 321.214 60.153 L 321.21 49.012 L 340.458 33.563 L 359.708 18.012 L 378.959 33.563 L 398.211 49.012 L 398.21 49.012 L 398.199 60.148 Z " fill="rgb(0,0,0)"/>
        </g>
      </g>
    </g>
  </g>
</svg>
