<?xml version="1.0" standalone="no"?>
<!--Generator: Gravit.io-->
<svg xmlns="http://www.w3.org/2000/svg" xmlns:xlink="http://www.w3.org/1999/xlink" width="425" height="125" style="isolation:isolate" viewBox="0 0 425 125">
    <defs>
        <clipPath id="_clipPath_tFJ8hoMcBoi3QJABlMKx5jjbvK2iPEdi">
            <rect width="425" height="125"/>
        </clipPath>
    </defs>
    <g clip-path="url(#_clipPath_tFJ8hoMcBoi3QJABlMKx5jjbvK2iPEdi)">
        <g id="bg">
            <rect width="425" height="125" x="0" y="0" fill="none" transform="matrix(1,0,0,1,0,0)"/>
        </g>
        <g id="Joppa-Outreach-Logo" style="isolation:isolate">
            <g id="logo">
                <g id="joppa-outreach">
                    <path fill="rgb(0,0,0)" fill-rule="evenodd" d=" M 197.498 108.293 Q 197.498 115.266 194.012 119.133 Q 190.525 123 184.139 123 Q 177.674 123 174.207 119.162 Q 170.74 115.324 170.74 108.254 Q 170.74 101.184 174.227 97.395 Q 177.713 93.605 184.178 93.605 Q 190.545 93.605 194.021 97.453 Q 197.498 101.301 197.498 108.293 Z  M 175.703 108.294 Q 175.703 113.568 177.831 116.292 Q 179.96 119.017 184.14 119.017 Q 188.3 119.017 190.419 116.322 Q 192.538 113.626 192.538 108.294 Q 192.538 103.04 190.439 100.326 Q 188.339 97.611 184.179 97.611 Q 179.98 97.611 177.841 100.326 Q 175.703 103.04 175.703 108.294 Z  M 222.703 94.055 L 227.371 94.055 L 227.371 112.531 L 227.371 112.531 Q 227.371 115.695 226.014 118.068 L 226.014 118.068 L 226.014 118.068 Q 224.656 120.441 222.088 121.721 L 222.088 121.721 L 222.088 121.721 Q 219.52 123 215.945 123 L 215.945 123 L 215.945 123 Q 209.633 123 206.684 120.187 L 206.684 120.187 L 206.684 120.187 Q 203.735 117.375 203.735 112.453 L 203.735 112.453 L 203.735 94.055 L 208.422 94.055 L 208.422 112.121 L 208.422 112.121 Q 208.422 114.656 210.063 116.336 L 210.063 116.336 L 210.063 116.336 Q 212.703 118.016 216.102 118.016 L 216.102 118.016 L 216.102 118.016 Q 222.657 117.752 222.703 112.082 L 222.703 112.082 L 222.703 94.055 Z  M 249.8 98.449 L 249.8 123 L 245.132 123 L 245.132 98.449 L 236.734 98.449 L 236.734 94.445 L 258.199 94.445 L 258.199 98.449 L 249.8 98.449 Z  M 277.111 111.594 L 271.408 111.594 L 271.408 123 L 266.74 123 L 266.74 94.445 L 275.9 94.445 Q 281.428 94.445 284.084 96.516 Q 286.74 98.586 286.74 102.766 Q 286.74 108.098 281.193 110.363 L 289.26 123 L 283.947 123 L 277.111 111.594 Z  M 271.41 98.392 L 271.41 107.728 L 275.745 107.728 Q 279.007 107.728 280.472 106.517 Q 281.937 105.306 281.937 102.923 Q 281.937 100.501 280.355 99.447 Q 278.773 98.392 275.589 98.392 L 271.41 98.392 Z  M 315.74 118.84 L 315.74 122.805 L 296.74 122.805 L 296.74 94.25 L 315.74 94.25 L 315.74 98.195 L 301.408 98.195 L 301.408 105.969 L 312.17 105.969 L 312.17 109.875 L 301.408 109.875 L 301.408 118.84 L 315.74 118.84 Z  M 349.186 123 L 344.225 123 L 341.373 117.07 L 330.455 117.07 L 327.662 123 L 322.74 123 L 333.424 94.328 L 338.502 94.328 L 349.186 123 Z  M 331.824 112.048 L 340.144 112.048 L 335.945 101.115 L 331.824 112.048 Z  M 368.295 97.57 L 368.295 97.57 L 368.295 97.57 Q 364.271 97.57 361.967 100.422 L 361.967 100.422 L 361.967 100.422 Q 359.662 103.273 359.662 108.293 L 359.662 108.293 L 359.662 108.293 Q 359.662 113.547 361.879 116.242 L 361.879 116.242 L 361.879 116.242 Q 364.096 117.937 368.295 117.937 L 368.295 117.937 L 368.295 117.937 Q 371.105 117.706 372.289 117.068 L 372.289 117.068 L 372.289 117.068 Q 373.841 116.493 375.346 115.113 L 375.346 115.113 L 377.74 119.162 L 377.74 119.162 Q 371.986 122.922 367.729 122.922 L 367.729 122.922 L 367.729 122.922 Q 361.459 122.922 358.1 119.123 L 358.1 119.123 L 358.1 119.123 Q 354.74 115.324 354.74 108.254 L 354.74 108.254 L 354.74 108.254 Q 354.74 103.801 356.371 100.461 L 356.371 100.461 L 356.371 100.461 Q 358.002 97.121 361.088 95.344 L 361.088 95.344 L 361.088 95.344 Q 364.174 93.566 368.334 93.566 L 368.334 93.566 L 368.334 93.566 Q 374.055 93.69 377.74 97.375 L 377.74 97.375 L 375.346 100.812 L 375.346 100.812 Q 373.9 98.967 372.289 98.449 L 372.289 98.449 L 372.289 98.449 Q 370.072 97.57 368.295 97.57 Z  M 412.26 94.445 L 412.26 123 L 407.572 123 L 407.572 110.129 L 392.408 110.129 L 392.408 123 L 387.74 123 L 387.74 94.445 L 392.408 94.445 L 392.408 106.125 L 407.572 106.125 L 407.572 94.445 L 412.26 94.445 Z  M 15.943 122.863 L 15.943 122.863 L 15.943 122.863 Q 14.029 122.863 12.74 122.375 L 12.74 122.375 L 12.74 117.449 L 12.74 117.449 Q 14.732 117.336 15.943 117.336 L 15.943 117.336 L 15.943 117.336 Q 18.584 116.708 18.42 113.016 L 18.42 113.016 L 18.42 94.191 L 24.107 94.191 L 24.107 113.859 L 24.107 113.859 Q 24.107 118.234 22.027 120.549 L 22.027 120.549 L 22.027 120.549 Q 19.947 122.863 15.943 122.863 Z  M 58.498 108.215 Q 58.498 115.187 55.012 119.055 Q 51.525 122.922 45.139 122.922 Q 38.674 122.922 35.207 119.084 Q 31.74 115.246 31.74 108.176 Q 31.74 101.105 35.227 97.316 Q 38.713 93.527 45.178 93.527 Q 51.545 93.527 55.021 97.375 Q 58.498 101.223 58.498 108.215 Z  M 36.703 108.216 Q 36.703 113.49 38.831 116.214 Q 40.96 118.939 45.14 118.939 Q 49.3 118.939 51.419 116.243 Q 53.538 113.548 53.538 108.216 Q 53.538 102.962 51.439 100.247 Q 49.339 97.533 45.179 97.533 Q 40.98 97.533 38.841 100.247 Q 36.703 102.962 36.703 108.216 Z  M 86.646 103.078 Q 86.646 107.551 83.717 109.934 Q 80.787 112.316 75.377 112.316 L 70.408 112.316 L 70.408 123 L 65.74 123 L 65.74 94.445 L 75.963 94.445 Q 81.314 94.445 83.98 96.633 Q 86.646 98.82 86.646 103.078 Z  M 70.41 98.353 L 70.41 108.392 L 74.89 108.392 Q 78.484 108.392 80.163 107.142 Q 81.843 105.892 81.843 103.236 Q 81.843 100.775 80.339 99.564 Q 78.835 98.353 75.652 98.353 L 70.41 98.353 Z  M 115.646 103.078 Q 115.646 107.551 112.717 109.934 Q 109.787 112.316 104.377 112.316 L 99.408 112.316 L 99.408 123 L 94.74 123 L 94.74 94.445 L 104.963 94.445 Q 110.314 94.445 112.98 96.633 Q 115.646 98.82 115.646 103.078 Z  M 99.41 98.353 L 99.41 108.392 L 103.89 108.392 Q 107.484 108.392 109.163 107.142 Q 110.843 105.892 110.843 103.236 Q 110.843 100.775 109.339 99.564 Q 107.835 98.353 104.652 98.353 L 99.41 98.353 Z  M 148.186 123 L 143.225 123 L 140.373 115.07 L 129.455 115.07 L 126.662 123 L 121.74 123 L 132.424 94.328 L 137.502 94.328 L 148.186 123 Z  M 130.824 111.048 L 139.144 111.048 L 136.468 103.275 Q 136.175 102.493 135.658 100.814 Q 135.14 99.134 134.945 98.353 Q 134.417 100.755 133.402 103.607 L 130.824 111.048 Z "/>
                </g>
                <g id="house-right">
                    <path fill="rgb(0,0,0)" d=" M 65.86 12.925 L 18.689 50.951 L 12.5 42.772 L 58.273 5.873 Q 63.069 1.784 66.351 2.012 Q 69.189 2.21 73.166 5.873 L 88.952 18.599 L 88.952 2.012 L 104.351 2.012 L 104.351 31.012 L 118.641 42.532 L 112.733 50.711 L 65.86 12.925 Z  M 104.34 60.148 L 104.351 60.148 L 104.351 79.303 L 104.324 79.303 C 104.324 79.305 104.324 79.306 104.324 79.308 L 104.324 81.415 C 104.324 83.945 101.054 86 98.523 86 L 98.131 86 L 98.131 86.012 L 73.986 86.012 L 73.986 79.303 L 73.972 79.303 L 73.972 61.012 L 58.517 61.012 L 58.517 79.303 L 58.503 79.303 L 58.503 86.012 L 34.358 86.012 L 34.358 86 L 33.965 86 C 31.435 86 27.378 83.95 27.378 81.42 L 27.378 79.313 C 27.378 79.311 27.378 79.31 27.378 79.308 L 27.351 79.308 L 27.351 60.153 L 27.355 60.153 L 27.351 49.012 L 46.599 33.563 L 65.849 18.012 L 85.1 33.563 L 104.352 49.012 L 104.351 49.012 L 104.34 60.148 Z "/>
                </g>
                <g id="house-middle">
                    <path fill="rgb(0,0,0)" d=" M 212.789 12.925 L 165.618 50.951 L 159.429 42.772 L 205.203 5.873 Q 209.999 1.784 213.28 2.012 Q 216.119 2.21 220.096 5.873 L 235.882 18.599 L 235.882 2.012 L 251.28 2.012 L 251.28 31.012 L 265.571 42.532 L 259.662 50.711 L 212.789 12.925 Z  M 251.27 60.148 L 251.28 60.148 L 251.28 79.303 L 251.253 79.303 C 251.253 79.305 251.253 79.306 251.253 79.308 L 251.253 81.415 C 251.253 83.945 247.983 86 245.453 86 L 245.06 86 L 245.06 86.012 L 220.915 86.012 L 220.915 79.303 L 220.901 79.303 L 220.901 61.012 L 205.446 61.012 L 205.446 79.303 L 205.432 79.303 L 205.432 86.012 L 181.287 86.012 L 181.287 86 L 180.895 86 C 178.364 86 174.307 83.95 174.307 81.42 L 174.307 79.313 C 174.307 79.311 174.307 79.31 174.307 79.308 L 174.28 79.308 L 174.28 60.153 L 174.285 60.153 L 174.28 49.012 L 193.528 33.563 L 212.779 18.012 L 232.029 33.563 L 251.282 49.012 L 251.28 49.012 L 251.27 60.148 Z "/>
                </g>
                <g id="house-left">
                    <path fill="rgb(0,0,0)" d=" M 359.719 12.925 L 312.548 50.951 L 306.359 42.772 L 352.132 5.873 Q 356.928 1.784 360.21 2.012 Q 363.048 2.21 367.025 5.873 L 382.811 18.599 L 382.811 2.012 L 398.21 2.012 L 398.21 31.012 L 412.5 42.532 L 406.592 50.711 L 359.719 12.925 Z  M 398.199 60.148 L 398.21 60.148 L 398.21 79.303 L 398.183 79.303 C 398.183 79.305 398.183 79.306 398.183 79.308 L 398.183 81.415 C 398.183 83.945 394.913 86 392.382 86 L 391.99 86 L 391.99 86.012 L 367.845 86.012 L 367.845 79.303 L 367.831 79.303 L 367.831 61.012 L 352.376 61.012 L 352.376 79.303 L 352.361 79.303 L 352.361 86.012 L 328.217 86.012 L 328.217 86 L 327.824 86 C 325.294 86 321.237 83.95 321.237 81.42 L 321.237 79.313 C 321.237 79.311 321.237 79.31 321.237 79.308 L 321.21 79.308 L 321.21 60.153 L 321.214 60.153 L 321.21 49.012 L 340.458 33.563 L 359.708 18.012 L 378.959 33.563 L 398.211 49.012 L 398.21 49.012 L 398.199 60.148 Z "/>
                </g>
            </g>
        </g>
    </g>
</svg>
